<?xml version="1.0" encoding="UTF-8" standalone="no"?>
<svg
   height="16"
   viewBox="0 0 16 16"
   width="16"
   version="1.1"
   id="svg1081"
   sodipodi:docname="GameObject.svg"
   inkscape:version="1.1.1 (3bf5ae0d25, 2021-09-20)"
   xmlns:inkscape="http://www.inkscape.org/namespaces/inkscape"
   xmlns:sodipodi="http://sodipodi.sourceforge.net/DTD/sodipodi-0.dtd"
   xmlns="http://www.w3.org/2000/svg"
   xmlns:svg="http://www.w3.org/2000/svg">
  <defs
     id="defs1085" />
  <sodipodi:namedview
     id="namedview1083"
     pagecolor="#505050"
     bordercolor="#eeeeee"
     borderopacity="1"
     inkscape:pageshadow="0"
     inkscape:pageopacity="0"
     inkscape:pagecheckerboard="0"
     showgrid="false"
     inkscape:snap-global="false"
     inkscape:zoom="10.529262"
     inkscape:cx="-6.1732722"
     inkscape:cy="10.019696"
     inkscape:window-width="1827"
     inkscape:window-height="1177"
     inkscape:window-x="85"
     inkscape:window-y="261"
     inkscape:window-maximized="1"
     inkscape:current-layer="svg1081" />
  <path
     id="path13856"
     style="font-size:13.75px;line-height:125%;font-family:Bahnschrift;-inkscape-font-specification:Bahnschrift;letter-spacing:0px;word-spacing:0px;fill:#ffaa00;stroke:none;stroke-width:0.865194px"
     d="M 8.0019531 1.0976562 A 0.56698669 0.56698669 0 0 0 7.5097656 1.3789062 L 6.5800781 2.9785156 A 0.56693 0.56693 0 0 0 6.7851562 3.7539062 A 0.56693 0.56693 0 0 0 7.5605469 3.546875 L 7.9941406 2.8007812 L 8.3964844 3.5097656 A 0.56693 0.56693 0 0 0 9.1679688 3.7226562 A 0.56693 0.56693 0 0 0 9.3808594 2.9492188 L 8.4921875 1.3847656 A 0.56698669 0.56698669 0 0 0 8.0019531 1.0976562 z M 4.8945312 3.703125 C 4.3059067 3.703125 3.7871041 3.8343242 3.3378906 4.0976562 C 2.8925497 4.3571158 2.548657 4.7248507 2.3046875 5.2011719 C 2.0607182 5.6774931 1.9375 6.2300719 1.9375 6.8574219 L 1.9375 9.3496094 C 1.9375 9.9421068 2.0627049 10.462896 2.3105469 10.912109 C 2.5583887 11.361323 2.9062552 11.709189 3.3554688 11.957031 C 3.8085548 12.201001 4.3333178 12.322266 4.9296875 12.322266 C 5.518312 12.322266 6.0351278 12.193053 6.4804688 11.933594 C 6.9296823 11.670262 7.2755618 11.30054 7.5195312 10.824219 C 7.7635007 10.344025 7.8867188 9.7914124 7.8867188 9.1640625 L 7.8867188 7.6875 L 4.9589844 7.6875 L 4.9589844 8.8203125 L 6.671875 8.8203125 L 6.671875 9.1855469 C 6.671875 9.5960351 6.6003148 9.9518155 6.4570312 10.25 C 6.3137477 10.548185 6.1109883 10.776773 5.8476562 10.935547 C 5.5843242 11.090448 5.2782152 11.167969 4.9296875 11.167969 C 4.5772872 11.167969 4.2652178 11.092434 3.9941406 10.941406 C 3.7269361 10.790378 3.520203 10.577718 3.3730469 10.306641 C 3.2258907 10.031691 3.1523438 9.7136274 3.1523438 9.3496094 L 3.1523438 6.8574219 C 3.1523438 6.4585513 3.2239038 6.1087317 3.3671875 5.8105469 C 3.5104711 5.5084895 3.7132304 5.2758937 3.9765625 5.109375 C 4.2398945 4.9428562 4.5460035 4.859375 4.8945312 4.859375 C 5.1346281 4.859375 5.3671901 4.9130536 5.5917969 5.0214844 C 5.8164037 5.1260428 6.0112156 5.2810841 6.1777344 5.4863281 C 6.3442532 5.6876997 6.4634976 5.9301959 6.5332031 6.2128906 L 7.8164062 6.2128906 C 7.719593 5.7133343 7.5327621 5.2740392 7.2578125 4.8945312 C 6.9828629 4.5150233 6.640957 4.2208691 6.2304688 4.015625 C 5.8238531 3.8065084 5.3785975 3.703125 4.8945312 3.703125 z M 11.347656 3.703125 C 10.759032 3.703125 10.240229 3.8323373 9.7910156 4.0917969 C 9.3418022 4.3473838 8.9939357 4.7111451 8.7460938 5.1835938 C 8.5021243 5.65217 8.3789062 6.1968014 8.3789062 6.8164062 L 8.3789062 9.2089844 C 8.3789062 9.8285893 8.5021244 10.375208 8.7460938 10.847656 C 8.9939357 11.316232 9.3418022 11.679993 9.7910156 11.939453 C 10.240229 12.19504 10.759032 12.322266 11.347656 12.322266 C 11.936281 12.322266 12.455084 12.19504 12.904297 11.939453 C 13.35351 11.679993 13.701343 11.316232 13.945312 10.847656 C 14.193154 10.375208 14.316406 9.8285893 14.316406 9.2089844 L 14.316406 6.8164062 C 14.316406 6.1968014 14.193154 5.6521699 13.945312 5.1835938 C 13.701342 4.7111451 13.35351 4.3473838 12.904297 4.0917969 C 12.455084 3.8323373 11.936281 3.703125 11.347656 3.703125 z M 11.347656 4.8710938 C 11.696184 4.8710938 12.002293 4.9506012 12.265625 5.109375 C 12.53283 5.2642761 12.737575 5.4869039 12.880859 5.7773438 C 13.028015 6.0639109 13.101562 6.3958827 13.101562 6.7753906 L 13.101562 9.25 C 13.101562 9.6295079 13.028015 9.9654194 12.880859 10.255859 C 12.737575 10.542426 12.53283 10.765054 12.265625 10.923828 C 12.002293 11.078729 11.696184 11.15625 11.347656 11.15625 C 10.999128 11.15625 10.691033 11.078729 10.423828 10.923828 C 10.160496 10.765054 9.9557498 10.542426 9.8085938 10.255859 C 9.6653102 9.9654194 9.59375 9.6295079 9.59375 9.25 L 9.59375 6.7753906 C 9.59375 6.3958827 9.6653101 6.063911 9.8085938 5.7773438 C 9.9557498 5.486904 10.160496 5.2642761 10.423828 5.109375 C 10.691033 4.9506012 10.999128 4.8710938 11.347656 4.8710938 z M 13.548828 12.183594 A 0.56693 0.56693 0 0 0 13.337891 12.246094 A 0.56693 0.56693 0 0 0 13.103516 13.013672 L 13.453125 13.673828 L 2.5546875 13.673828 L 2.8945312 13.041016 A 0.56693 0.56693 0 0 0 2.6640625 12.271484 A 0.56693 0.56693 0 0 0 1.8964844 12.501953 L 1.1054688 13.972656 A 0.56698669 0.56698669 0 0 0 1.6035156 14.808594 L 14.396484 14.808594 A 0.56698669 0.56698669 0 0 0 14.896484 13.976562 L 14.105469 12.482422 A 0.56693 0.56693 0 0 0 13.769531 12.205078 A 0.56693 0.56693 0 0 0 13.548828 12.183594 z " />
</svg>
